<svg width="22" height="22" viewBox="0 0 22 22" fill="none" xmlns="http://www.w3.org/2000/svg">
<g id="Check circle outline" clip-path="url(#clip0_1768_1129)">
<path id="Vector" d="M15.2072 6.94825L9.16634 12.9891L5.87551 9.70742L4.58301 10.9999L9.16634 15.5833L16.4997 8.24992L15.2072 6.94825ZM10.9997 1.83325C5.93967 1.83325 1.83301 5.93992 1.83301 10.9999C1.83301 16.0599 5.93967 20.1666 10.9997 20.1666C16.0597 20.1666 20.1663 16.0599 20.1663 10.9999C20.1663 5.93992 16.0597 1.83325 10.9997 1.83325ZM10.9997 18.3333C6.94801 18.3333 3.66634 15.0516 3.66634 10.9999C3.66634 6.94825 6.94801 3.66659 10.9997 3.66659C15.0513 3.66659 18.333 6.94825 18.333 10.9999C18.333 15.0516 15.0513 18.3333 10.9997 18.3333Z" fill="#50A684"/>
</g>
<defs>
<clipPath id="clip0_1768_1129">
<rect width="22" height="22" fill="white"/>
</clipPath>
</defs>
</svg>
